<mxfile host="app.diagrams.net" modified="2022-12-11T20:57:14.735Z" agent="5.0 (X11)" version="20.6.2" etag="eF_fRY1Qzp-3s9TEwGfg" type="github">
  <diagram id="WF2kyq3LrAvW6tWxpOiD" name="Page-1">
    <mxGraphModel dx="1353" dy="913" grid="1" gridSize="10" guides="1" tooltips="1" connect="1" arrows="1" fold="1" page="1" pageScale="1" pageWidth="1169" pageHeight="827" math="0" shadow="0">
      <root>
        <mxCell id="0" />
        <mxCell id="1" parent="0" />
        <mxCell id="eTlp-nKcSPXShIvZMsuq-1" value="&lt;div&gt;Tas&lt;/div&gt;" style="swimlane;whiteSpace=wrap;html=1;" vertex="1" parent="1">
          <mxGeometry x="130" y="40" width="200" height="760" as="geometry" />
        </mxCell>
        <mxCell id="eTlp-nKcSPXShIvZMsuq-2" value="Pile" style="swimlane;whiteSpace=wrap;html=1;" vertex="1" parent="1">
          <mxGeometry x="500" y="40" width="200" height="760" as="geometry" />
        </mxCell>
        <mxCell id="eTlp-nKcSPXShIvZMsuq-3" value="Const" style="swimlane;whiteSpace=wrap;html=1;" vertex="1" parent="1">
          <mxGeometry x="850" y="40" width="200" height="760" as="geometry" />
        </mxCell>
      </root>
    </mxGraphModel>
  </diagram>
</mxfile>
